<svg xmlns="http://www.w3.org/2000/svg" viewBox="0 0 120 120" width="120" height="120">
  <defs>
    <radialGradient id="vikingSpaceV1" cx="50%" cy="50%" r="65%">
      <stop offset="0%" stop-color="#1e1b4b"/>
      <stop offset="60%" stop-color="#0b0f19"/>
      <stop offset="100%" stop-color="#030712"/>
    </radialGradient>
    <linearGradient id="goldRoyalV1" x1="0%" y1="0%" x2="100%" y2="100%">
      <stop offset="0%" stop-color="#fffeb3"/>
      <stop offset="30%" stop-color="#f59e0b"/>
      <stop offset="70%" stop-color="#d97706"/>
      <stop offset="100%" stop-color="#78350f"/>
    </linearGradient>
    <linearGradient id="electricBlueV1" x1="0%" y1="0%" x2="100%" y2="100%">
      <stop offset="0%" stop-color="#bae6fd"/>
      <stop offset="30%" stop-color="#38bdf8"/>
      <stop offset="70%" stop-color="#2563eb"/>
      <stop offset="100%" stop-color="#4f46e5"/>
    </linearGradient>
    <filter id="superGlowV1" x="-30%" y="-30%" width="160%" height="160%">
      <feGaussianBlur stdDeviation="4.5" result="blur1"/>
      <feGaussianBlur stdDeviation="1.5" result="blur2"/>
      <feMerge>
        <feMergeNode in="blur1"/>
        <feMergeNode in="blur2"/>
        <feMergeNode in="SourceGraphic"/>
      </feMerge>
    </filter>
  </defs>

  <circle cx="60" cy="60" r="54" fill="#0284c7" opacity="0.18" filter="url(#superGlowV1)"/>
  <circle cx="60" cy="60" r="50" fill="url(#vikingSpaceV1)" stroke="url(#goldRoyalV1)" stroke-width="3.5"/>
  <circle cx="60" cy="60" r="44" fill="none" stroke="url(#electricBlueV1)" stroke-width="1.5" stroke-dasharray="6 3.5" opacity="0.8"/>
  <circle cx="60" cy="60" r="41" fill="none" stroke="url(#goldRoyalV1)" stroke-width="1" opacity="0.4"/>

  <circle cx="60" cy="14" r="2.5" fill="url(#goldRoyalV1)"/>
  <circle cx="60" cy="106" r="2.5" fill="url(#goldRoyalV1)"/>
  <circle cx="14" cy="60" r="2.5" fill="url(#goldRoyalV1)"/>
  <circle cx="106" cy="60" r="2.5" fill="url(#goldRoyalV1)"/>

  <path d="M 40 33 L 45 21 L 53 27 L 60 17 L 67 27 L 75 21 L 80 33 Z" fill="url(#goldRoyalV1)" stroke="#fffeb3" stroke-width="0.8"/>
  <circle cx="60" cy="17" r="2.5" fill="#f43f5e"/>
  <circle cx="45" cy="21" r="1.8" fill="#38bdf8"/>
  <circle cx="75" cy="21" r="1.8" fill="#38bdf8"/>

  <path d="M 60 36 L 60 88" stroke="url(#electricBlueV1)" stroke-width="6" stroke-linecap="round" filter="url(#superGlowV1)"/>
  <path d="M 60 36 L 75 49 L 60 62 L 75 75 L 60 88" stroke="url(#electricBlueV1)" stroke-width="6" stroke-linecap="round" stroke-linejoin="round" fill="none" filter="url(#superGlowV1)"/>
  <path d="M 60 49 L 45 62 M 60 75 L 45 62" stroke="url(#electricBlueV1)" stroke-width="6" stroke-linecap="round" filter="url(#superGlowV1)"/>

  <path d="M 98 22 L 100 27 L 105 29 L 100 31 L 98 36 L 96 31 L 91 29 L 96 27 Z" fill="#fef08a"/>
</svg>
