<svg xmlns="http://www.w3.org/2000/svg" viewBox="0 0 120 120" width="120" height="120">
  <defs>
    <linearGradient id="vk2Bg" x1="0%" y1="0%" x2="100%" y2="100%">
      <stop offset="0%" stop-color="#0284c7"/>
      <stop offset="100%" stop-color="#0f172a"/>
    </linearGradient>
  </defs>
  <rect x="8" y="8" width="104" height="104" rx="28" fill="url(#vk2Bg)" stroke="#38bdf8" stroke-width="2"/>
  <!-- 바이킹 뿔 투구 쉐입 (Viking Helmet Horns) -->
  <path d="M 32 46 C 26 30, 42 22, 44 32 C 44 42, 38 48, 32 46 Z" fill="#e2e8f0"/>
  <path d="M 88 46 C 94 30, 78 22, 76 32 C 76 42, 82 48, 88 46 Z" fill="#e2e8f0"/>
  <!-- 바이킹 투구 본체 -->
  <path d="M 36 50 C 36 34, 84 34, 84 50 L 84 62 C 84 62, 60 70, 36 62 Z" fill="#1e293b" stroke="#38bdf8" stroke-width="2"/>
  <!-- 중앙 블루투스 룬 엠블럼 -->
  <path d="M 60 40 L 67 47 L 53 60 L 67 73 L 60 80 L 60 40 L 67 52 L 53 68" 
        stroke="#38bdf8" stroke-width="4.5" stroke-linecap="round" stroke-linejoin="round" fill="none"/>
</svg>
